<svg width="850" height="418" viewBox="0 0 850 418" fill="none" xmlns="http://www.w3.org/2000/svg">
<mask id="path-1-outside-1_12_1697" maskUnits="userSpaceOnUse" x="393.698" y="45.9625" width="89.4233" height="53.3132" fill="black">
<rect fill="white" x="393.698" y="45.9625" width="89.4233" height="53.3132"/>
<path d="M476.203 88.9576C479.381 88.5965 481.706 85.7094 480.906 82.6117C478.666 73.9364 473.66 66.1628 466.569 60.5184C457.957 53.6638 446.976 50.5109 436.039 51.7533C425.103 52.9957 415.109 58.5315 408.254 67.143C402.61 74.2342 399.475 82.9326 399.238 91.8892C399.153 95.0875 402.066 97.3796 405.245 97.0185C408.424 96.6574 410.649 93.7703 410.907 90.5812C411.381 84.6996 413.59 79.0426 417.319 74.3584C422.26 68.1511 429.464 64.1608 437.347 63.2653C445.23 62.3697 453.146 64.6424 459.353 69.5833C464.037 73.3117 467.459 78.3291 469.241 83.9544C470.207 87.0044 473.024 89.3188 476.203 88.9576Z"/>
</mask>
<path d="M476.203 88.9576C479.381 88.5965 481.706 85.7094 480.906 82.6117C478.666 73.9364 473.66 66.1628 466.569 60.5184C457.957 53.6638 446.976 50.5109 436.039 51.7533C425.103 52.9957 415.109 58.5315 408.254 67.143C402.61 74.2342 399.475 82.9326 399.238 91.8892C399.153 95.0875 402.066 97.3796 405.245 97.0185C408.424 96.6574 410.649 93.7703 410.907 90.5812C411.381 84.6996 413.59 79.0426 417.319 74.3584C422.26 68.1511 429.464 64.1608 437.347 63.2653C445.23 62.3697 453.146 64.6424 459.353 69.5833C464.037 73.3117 467.459 78.3291 469.241 83.9544C470.207 87.0044 473.024 89.3188 476.203 88.9576Z" stroke="white" stroke-width="2" mask="url(#path-1-outside-1_12_1697)"/>
<mask id="path-2-outside-2_12_1697" maskUnits="userSpaceOnUse" x="-71.2757" y="382.598" width="89.4233" height="53.3132" fill="black">
<rect fill="white" x="-71.2757" y="382.598" width="89.4233" height="53.3132"/>
<path d="M11.2287 425.593C14.4077 425.232 16.7318 422.345 15.9319 419.247C13.6918 410.572 8.68616 402.798 1.59499 397.154C-7.01651 390.299 -17.9983 387.146 -28.9344 388.389C-39.8705 389.631 -49.8653 395.167 -56.7198 403.778C-62.3642 410.87 -65.4986 419.568 -65.7357 428.525C-65.8204 431.723 -62.9078 434.015 -59.7289 433.654C-56.5499 433.293 -54.3247 430.406 -54.0672 427.217C-53.5924 421.335 -51.3833 415.678 -47.6549 410.994C-42.714 404.787 -35.5096 400.796 -27.6266 399.901C-19.7436 399.005 -11.8278 401.278 -5.62045 406.219C-0.936326 409.947 2.48537 414.965 4.2674 420.59C5.23361 423.64 8.04978 425.954 11.2287 425.593Z"/>
</mask>
<path d="M11.2287 425.593C14.4077 425.232 16.7318 422.345 15.9319 419.247C13.6918 410.572 8.68616 402.798 1.59499 397.154C-7.01651 390.299 -17.9983 387.146 -28.9344 388.389C-39.8705 389.631 -49.8653 395.167 -56.7198 403.778C-62.3642 410.87 -65.4986 419.568 -65.7357 428.525C-65.8204 431.723 -62.9078 434.015 -59.7289 433.654C-56.5499 433.293 -54.3247 430.406 -54.0672 427.217C-53.5924 421.335 -51.3833 415.678 -47.6549 410.994C-42.714 404.787 -35.5096 400.796 -27.6266 399.901C-19.7436 399.005 -11.8278 401.278 -5.62045 406.219C-0.936326 409.947 2.48537 414.965 4.2674 420.59C5.23361 423.64 8.04978 425.954 11.2287 425.593Z" stroke="white" stroke-width="2" mask="url(#path-2-outside-2_12_1697)"/>
<mask id="path-3-outside-3_12_1697" maskUnits="userSpaceOnUse" x="425.529" y="326.16" width="89.4233" height="53.3132" fill="black">
<rect fill="white" x="425.529" y="326.16" width="89.4233" height="53.3132"/>
<path d="M508.033 369.155C511.212 368.794 513.536 365.907 512.737 362.809C510.496 354.134 505.491 346.361 498.4 340.716C489.788 333.862 478.806 330.709 467.87 331.951C456.934 333.193 446.939 338.729 440.085 347.341C434.44 354.432 431.306 363.13 431.069 372.087C430.984 375.285 433.897 377.577 437.076 377.216C440.255 376.855 442.48 373.968 442.737 370.779C443.212 364.897 445.421 359.24 449.15 354.556C454.091 348.349 461.295 344.359 469.178 343.463C477.061 342.568 484.977 344.84 491.184 349.781C495.868 353.51 499.29 358.527 501.072 364.152C502.038 367.202 504.854 369.517 508.033 369.155Z"/>
</mask>
<path d="M508.033 369.155C511.212 368.794 513.536 365.907 512.737 362.809C510.496 354.134 505.491 346.361 498.4 340.716C489.788 333.862 478.806 330.709 467.87 331.951C456.934 333.193 446.939 338.729 440.085 347.341C434.44 354.432 431.306 363.13 431.069 372.087C430.984 375.285 433.897 377.577 437.076 377.216C440.255 376.855 442.48 373.968 442.737 370.779C443.212 364.897 445.421 359.24 449.15 354.556C454.091 348.349 461.295 344.359 469.178 343.463C477.061 342.568 484.977 344.84 491.184 349.781C495.868 353.51 499.29 358.527 501.072 364.152C502.038 367.202 504.854 369.517 508.033 369.155Z" stroke="white" stroke-width="2" mask="url(#path-3-outside-3_12_1697)"/>
<mask id="path-4-outside-4_12_1697" maskUnits="userSpaceOnUse" x="-87.1911" y="242.499" width="89.4233" height="53.3132" fill="black">
<rect fill="white" x="-87.1911" y="242.499" width="89.4233" height="53.3132"/>
<path d="M-4.68668 285.494C-1.50774 285.133 0.816432 282.246 0.0165279 279.148C-2.2236 270.473 -7.22924 262.699 -14.3204 257.055C-22.9319 250.2 -33.9137 247.047 -44.8498 248.29C-55.786 249.532 -65.7807 255.068 -72.6352 263.68C-78.2796 270.771 -81.414 279.469 -81.6511 288.426C-81.7358 291.624 -78.8232 293.916 -75.6443 293.555C-72.4654 293.194 -70.2401 290.307 -69.9826 287.118C-69.5078 281.236 -67.2987 275.579 -63.5703 270.895C-58.6294 264.688 -51.425 260.697 -43.542 259.802C-35.6591 258.906 -27.7432 261.179 -21.5359 266.12C-16.8517 269.848 -13.43 274.866 -11.648 280.491C-10.6818 283.541 -7.86562 285.855 -4.68668 285.494Z"/>
</mask>
<path d="M-4.68668 285.494C-1.50774 285.133 0.816432 282.246 0.0165279 279.148C-2.2236 270.473 -7.22924 262.699 -14.3204 257.055C-22.9319 250.2 -33.9137 247.047 -44.8498 248.29C-55.786 249.532 -65.7807 255.068 -72.6352 263.68C-78.2796 270.771 -81.414 279.469 -81.6511 288.426C-81.7358 291.624 -78.8232 293.916 -75.6443 293.555C-72.4654 293.194 -70.2401 290.307 -69.9826 287.118C-69.5078 281.236 -67.2987 275.579 -63.5703 270.895C-58.6294 264.688 -51.425 260.697 -43.542 259.802C-35.6591 258.906 -27.7432 261.179 -21.5359 266.12C-16.8517 269.848 -13.43 274.866 -11.648 280.491C-10.6818 283.541 -7.86562 285.855 -4.68668 285.494Z" stroke="white" stroke-width="2" mask="url(#path-4-outside-4_12_1697)"/>
<mask id="path-5-outside-5_12_1697" maskUnits="userSpaceOnUse" x="409.614" y="186.061" width="89.4233" height="53.3132" fill="black">
<rect fill="white" x="409.614" y="186.061" width="89.4233" height="53.3132"/>
<path d="M492.118 229.057C495.297 228.695 497.621 225.808 496.821 222.711C494.581 214.035 489.575 206.262 482.484 200.617C473.873 193.763 462.891 190.61 451.955 191.852C441.019 193.095 431.024 198.63 424.169 207.242C418.525 214.333 415.391 223.031 415.154 231.988C415.069 235.186 417.981 237.479 421.16 237.117C424.339 236.756 426.565 233.869 426.822 230.68C427.297 224.799 429.506 219.142 433.234 214.457C438.175 208.25 445.38 204.26 453.263 203.364C461.146 202.469 469.061 204.741 475.269 209.682C479.953 213.411 483.375 218.428 485.157 224.053C486.123 227.103 488.939 229.418 492.118 229.057Z"/>
</mask>
<path d="M492.118 229.057C495.297 228.695 497.621 225.808 496.821 222.711C494.581 214.035 489.575 206.262 482.484 200.617C473.873 193.763 462.891 190.61 451.955 191.852C441.019 193.095 431.024 198.63 424.169 207.242C418.525 214.333 415.391 223.031 415.154 231.988C415.069 235.186 417.981 237.479 421.16 237.117C424.339 236.756 426.565 233.869 426.822 230.68C427.297 224.799 429.506 219.142 433.234 214.457C438.175 208.25 445.38 204.26 453.263 203.364C461.146 202.469 469.061 204.741 475.269 209.682C479.953 213.411 483.375 218.428 485.157 224.053C486.123 227.103 488.939 229.418 492.118 229.057Z" stroke="white" stroke-width="2" mask="url(#path-5-outside-5_12_1697)"/>
<mask id="path-6-outside-6_12_1697" maskUnits="userSpaceOnUse" x="145.296" y="74.1814" width="89.4233" height="53.3132" fill="black">
<rect fill="white" x="145.296" y="74.1814" width="89.4233" height="53.3132"/>
<path d="M227.8 117.177C230.979 116.815 233.303 113.928 232.503 110.831C230.263 102.155 225.258 94.3816 218.166 88.7372C209.555 81.8827 198.573 78.7298 187.637 79.9722C176.701 81.2145 166.706 86.7504 159.852 95.3619C154.207 102.453 151.073 111.151 150.836 120.108C150.751 123.306 153.664 125.599 156.843 125.237C160.022 124.876 162.247 121.989 162.504 118.8C162.979 112.918 165.188 107.261 168.917 102.577C173.857 96.37 181.062 92.3796 188.945 91.4841C196.828 90.5886 204.744 92.8613 210.951 97.8022C215.635 101.531 219.057 106.548 220.839 112.173C221.805 115.223 224.621 117.538 227.8 117.177Z"/>
</mask>
<path d="M227.8 117.177C230.979 116.815 233.303 113.928 232.503 110.831C230.263 102.155 225.258 94.3816 218.166 88.7372C209.555 81.8827 198.573 78.7298 187.637 79.9722C176.701 81.2145 166.706 86.7504 159.852 95.3619C154.207 102.453 151.073 111.151 150.836 120.108C150.751 123.306 153.664 125.599 156.843 125.237C160.022 124.876 162.247 121.989 162.504 118.8C162.979 112.918 165.188 107.261 168.917 102.577C173.857 96.37 181.062 92.3796 188.945 91.4841C196.828 90.5886 204.744 92.8613 210.951 97.8022C215.635 101.531 219.057 106.548 220.839 112.173C221.805 115.223 224.621 117.538 227.8 117.177Z" stroke="white" stroke-width="2" mask="url(#path-6-outside-6_12_1697)"/>
<mask id="path-7-outside-7_12_1697" maskUnits="userSpaceOnUse" x="642.1" y="17.7437" width="89.4233" height="53.3132" fill="black">
<rect fill="white" x="642.1" y="17.7437" width="89.4233" height="53.3132"/>
<path d="M724.605 60.7388C727.784 60.3777 730.108 57.4906 729.308 54.3929C727.068 45.7176 722.062 37.944 714.971 32.2996C706.36 25.445 695.378 22.2921 684.442 23.5345C673.506 24.7768 663.511 30.3127 656.656 38.9242C651.012 46.0154 647.877 54.7137 647.64 63.6704C647.556 66.8687 650.468 69.1608 653.647 68.7997C656.826 68.4386 659.051 65.5514 659.309 62.3624C659.784 56.4808 661.993 50.8238 665.721 46.1396C670.662 39.9323 677.866 35.942 685.749 35.0464C693.632 34.1509 701.548 36.4236 707.756 41.3645C712.44 45.0929 715.861 50.1103 717.643 55.7355C718.61 58.7855 721.426 61.1 724.605 60.7388Z"/>
</mask>
<path d="M724.605 60.7388C727.784 60.3777 730.108 57.4906 729.308 54.3929C727.068 45.7176 722.062 37.944 714.971 32.2996C706.36 25.445 695.378 22.2921 684.442 23.5345C673.506 24.7768 663.511 30.3127 656.656 38.9242C651.012 46.0154 647.877 54.7137 647.64 63.6704C647.556 66.8687 650.468 69.1608 653.647 68.7997C656.826 68.4386 659.051 65.5514 659.309 62.3624C659.784 56.4808 661.993 50.8238 665.721 46.1396C670.662 39.9323 677.866 35.942 685.749 35.0464C693.632 34.1509 701.548 36.4236 707.756 41.3645C712.44 45.0929 715.861 50.1103 717.643 55.7355C718.61 58.7855 721.426 61.1 724.605 60.7388Z" stroke="white" stroke-width="2" mask="url(#path-7-outside-7_12_1697)"/>
<mask id="path-8-outside-8_12_1697" maskUnits="userSpaceOnUse" x="177.127" y="354.379" width="89.4233" height="53.3132" fill="black">
<rect fill="white" x="177.127" y="354.379" width="89.4233" height="53.3132"/>
<path d="M259.631 397.374C262.81 397.013 265.134 394.126 264.334 391.028C262.094 382.353 257.088 374.579 249.997 368.935C241.386 362.08 230.404 358.928 219.468 360.17C208.532 361.412 198.537 366.948 191.683 375.56C186.038 382.651 182.904 391.349 182.667 400.306C182.582 403.504 185.494 405.796 188.673 405.435C191.852 405.074 194.078 402.187 194.335 398.998C194.81 393.116 197.019 387.459 200.747 382.775C205.688 376.568 212.893 372.577 220.776 371.682C228.659 370.786 236.575 373.059 242.782 378C247.466 381.728 250.888 386.746 252.67 392.371C253.636 395.421 256.452 397.735 259.631 397.374Z"/>
</mask>
<path d="M259.631 397.374C262.81 397.013 265.134 394.126 264.334 391.028C262.094 382.353 257.088 374.579 249.997 368.935C241.386 362.08 230.404 358.928 219.468 360.17C208.532 361.412 198.537 366.948 191.683 375.56C186.038 382.651 182.904 391.349 182.667 400.306C182.582 403.504 185.494 405.796 188.673 405.435C191.852 405.074 194.078 402.187 194.335 398.998C194.81 393.116 197.019 387.459 200.747 382.775C205.688 376.568 212.893 372.577 220.776 371.682C228.659 370.786 236.575 373.059 242.782 378C247.466 381.728 250.888 386.746 252.67 392.371C253.636 395.421 256.452 397.735 259.631 397.374Z" stroke="white" stroke-width="2" mask="url(#path-8-outside-8_12_1697)"/>
<mask id="path-9-outside-9_12_1697" maskUnits="userSpaceOnUse" x="673.931" y="297.941" width="89.4233" height="53.3132" fill="black">
<rect fill="white" x="673.931" y="297.941" width="89.4233" height="53.3132"/>
<path d="M756.436 340.937C759.615 340.576 761.939 337.688 761.139 334.591C758.899 325.915 753.893 318.142 746.802 312.497C738.19 305.643 727.209 302.49 716.273 303.732C705.336 304.975 695.342 310.511 688.487 319.122C682.843 326.213 679.708 334.912 679.471 343.868C679.387 347.066 682.299 349.359 685.478 348.998C688.657 348.636 690.882 345.749 691.14 342.56C691.615 336.679 693.824 331.022 697.552 326.337C702.493 320.13 709.697 316.14 717.58 315.244C725.463 314.349 733.379 316.621 739.586 321.562C744.271 325.291 747.692 330.308 749.474 335.933C750.441 338.983 753.257 341.298 756.436 340.937Z"/>
</mask>
<path d="M756.436 340.937C759.615 340.576 761.939 337.688 761.139 334.591C758.899 325.915 753.893 318.142 746.802 312.497C738.19 305.643 727.209 302.49 716.273 303.732C705.336 304.975 695.342 310.511 688.487 319.122C682.843 326.213 679.708 334.912 679.471 343.868C679.387 347.066 682.299 349.359 685.478 348.998C688.657 348.636 690.882 345.749 691.14 342.56C691.615 336.679 693.824 331.022 697.552 326.337C702.493 320.13 709.697 316.14 717.58 315.244C725.463 314.349 733.379 316.621 739.586 321.562C744.271 325.291 747.692 330.308 749.474 335.933C750.441 338.983 753.257 341.298 756.436 340.937Z" stroke="white" stroke-width="2" mask="url(#path-9-outside-9_12_1697)"/>
<mask id="path-10-outside-10_12_1697" maskUnits="userSpaceOnUse" x="161.211" y="214.28" width="89.4233" height="53.3132" fill="black">
<rect fill="white" x="161.211" y="214.28" width="89.4233" height="53.3132"/>
<path d="M243.716 257.275C246.895 256.914 249.219 254.027 248.419 250.929C246.179 242.254 241.173 234.481 234.082 228.836C225.47 221.982 214.489 218.829 203.553 220.071C192.616 221.313 182.622 226.849 175.767 235.461C170.123 242.552 166.988 251.25 166.751 260.207C166.667 263.405 169.579 265.697 172.758 265.336C175.937 264.975 178.162 262.088 178.42 258.899C178.895 253.017 181.104 247.36 184.832 242.676C189.773 236.469 196.977 232.479 204.86 231.583C212.743 230.687 220.659 232.96 226.866 237.901C231.551 241.629 234.972 246.647 236.754 252.272C237.721 255.322 240.537 257.637 243.716 257.275Z"/>
</mask>
<path d="M243.716 257.275C246.895 256.914 249.219 254.027 248.419 250.929C246.179 242.254 241.173 234.481 234.082 228.836C225.47 221.982 214.489 218.829 203.553 220.071C192.616 221.313 182.622 226.849 175.767 235.461C170.123 242.552 166.988 251.25 166.751 260.207C166.667 263.405 169.579 265.697 172.758 265.336C175.937 264.975 178.162 262.088 178.42 258.899C178.895 253.017 181.104 247.36 184.832 242.676C189.773 236.469 196.977 232.479 204.86 231.583C212.743 230.687 220.659 232.96 226.866 237.901C231.551 241.629 234.972 246.647 236.754 252.272C237.721 255.322 240.537 257.637 243.716 257.275Z" stroke="white" stroke-width="2" mask="url(#path-10-outside-10_12_1697)"/>
<mask id="path-11-outside-11_12_1697" maskUnits="userSpaceOnUse" x="658.016" y="157.843" width="89.4233" height="53.3132" fill="black">
<rect fill="white" x="658.016" y="157.843" width="89.4233" height="53.3132"/>
<path d="M740.52 200.838C743.699 200.477 746.023 197.59 745.223 194.492C742.983 185.816 737.978 178.043 730.886 172.398C722.275 165.544 711.293 162.391 700.357 163.633C689.421 164.876 679.426 170.412 672.572 179.023C666.927 186.114 663.793 194.813 663.556 203.769C663.471 206.968 666.384 209.26 669.563 208.899C672.742 208.537 674.967 205.65 675.224 202.461C675.699 196.58 677.908 190.923 681.637 186.239C686.578 180.031 693.782 176.041 701.665 175.145C709.548 174.25 717.464 176.522 723.671 181.463C728.355 185.192 731.777 190.209 733.559 195.834C734.525 198.884 737.341 201.199 740.52 200.838Z"/>
</mask>
<path d="M740.52 200.838C743.699 200.477 746.023 197.59 745.223 194.492C742.983 185.816 737.978 178.043 730.886 172.398C722.275 165.544 711.293 162.391 700.357 163.633C689.421 164.876 679.426 170.412 672.572 179.023C666.927 186.114 663.793 194.813 663.556 203.769C663.471 206.968 666.384 209.26 669.563 208.899C672.742 208.537 674.967 205.65 675.224 202.461C675.699 196.58 677.908 190.923 681.637 186.239C686.578 180.031 693.782 176.041 701.665 175.145C709.548 174.25 717.464 176.522 723.671 181.463C728.355 185.192 731.777 190.209 733.559 195.834C734.525 198.884 737.341 201.199 740.52 200.838Z" stroke="white" stroke-width="2" mask="url(#path-11-outside-11_12_1697)"/>
<mask id="path-12-outside-12_12_1697" maskUnits="userSpaceOnUse" x="21.0947" y="88.2907" width="89.4233" height="53.3132" fill="black">
<rect fill="white" x="21.0947" y="88.2907" width="89.4233" height="53.3132"/>
<path d="M103.599 131.286C106.778 130.925 109.102 128.038 108.302 124.94C106.062 116.265 101.057 108.491 93.9654 102.847C85.3539 95.9921 74.3721 92.8392 63.436 94.0815C52.4998 95.3239 42.5051 100.86 35.6506 109.471C30.0062 116.562 26.8718 125.261 26.6347 134.217C26.55 137.416 29.4625 139.708 32.6415 139.347C35.8204 138.986 38.0457 136.098 38.3031 132.909C38.778 127.028 40.987 121.371 44.7155 116.687C49.6564 110.479 56.8607 106.489 64.7437 105.593C72.6267 104.698 80.5426 106.971 86.7499 111.912C91.434 115.64 94.8557 120.657 96.6378 126.283C97.604 129.333 100.42 131.647 103.599 131.286Z"/>
</mask>
<path d="M103.599 131.286C106.778 130.925 109.102 128.038 108.302 124.94C106.062 116.265 101.057 108.491 93.9654 102.847C85.3539 95.9921 74.3721 92.8392 63.436 94.0815C52.4998 95.3239 42.5051 100.86 35.6506 109.471C30.0062 116.562 26.8718 125.261 26.6347 134.217C26.55 137.416 29.4625 139.708 32.6415 139.347C35.8204 138.986 38.0457 136.098 38.3031 132.909C38.778 127.028 40.987 121.371 44.7155 116.687C49.6564 110.479 56.8607 106.489 64.7437 105.593C72.6267 104.698 80.5426 106.971 86.7499 111.912C91.434 115.64 94.8557 120.657 96.6378 126.283C97.604 129.333 100.42 131.647 103.599 131.286Z" stroke="white" stroke-width="2" mask="url(#path-12-outside-12_12_1697)"/>
<mask id="path-13-outside-13_12_1697" maskUnits="userSpaceOnUse" x="517.899" y="31.8531" width="89.4233" height="53.3132" fill="black">
<rect fill="white" x="517.899" y="31.8531" width="89.4233" height="53.3132"/>
<path d="M600.404 74.8483C603.583 74.4871 605.907 71.6001 605.107 68.5023C602.867 59.827 597.861 52.0534 590.77 46.409C582.158 39.5545 571.177 36.4016 560.241 37.6439C549.304 38.8863 539.31 44.4221 532.455 53.0336C526.811 60.1248 523.676 68.8232 523.439 77.7798C523.355 80.9781 526.267 83.2703 529.446 82.9091C532.625 82.548 534.85 79.6609 535.108 76.4719C535.583 70.5902 537.792 64.9332 541.52 60.2491C546.461 54.0417 553.665 50.0514 561.548 49.1559C569.431 48.2604 577.347 50.533 583.554 55.4739C588.239 59.2024 591.66 64.2197 593.442 69.845C594.409 72.895 597.225 75.2094 600.404 74.8483Z"/>
</mask>
<path d="M600.404 74.8483C603.583 74.4871 605.907 71.6001 605.107 68.5023C602.867 59.827 597.861 52.0534 590.77 46.409C582.158 39.5545 571.177 36.4016 560.241 37.6439C549.304 38.8863 539.31 44.4221 532.455 53.0336C526.811 60.1248 523.676 68.8232 523.439 77.7798C523.355 80.9781 526.267 83.2703 529.446 82.9091C532.625 82.548 534.85 79.6609 535.108 76.4719C535.583 70.5902 537.792 64.9332 541.52 60.2491C546.461 54.0417 553.665 50.0514 561.548 49.1559C569.431 48.2604 577.347 50.533 583.554 55.4739C588.239 59.2024 591.66 64.2197 593.442 69.845C594.409 72.895 597.225 75.2094 600.404 74.8483Z" stroke="white" stroke-width="2" mask="url(#path-13-outside-13_12_1697)"/>
<mask id="path-14-outside-14_12_1697" maskUnits="userSpaceOnUse" x="52.9255" y="368.489" width="89.4233" height="53.3132" fill="black">
<rect fill="white" x="52.9255" y="368.489" width="89.4233" height="53.3132"/>
<path d="M135.43 411.484C138.609 411.123 140.933 408.236 140.133 405.138C137.893 396.462 132.887 388.689 125.796 383.044C117.185 376.19 106.203 373.037 95.2668 374.279C84.3306 375.522 74.3359 381.058 67.4814 389.669C61.837 396.76 58.7026 405.459 58.4655 414.415C58.3808 417.614 61.2933 419.906 64.4723 419.545C67.6512 419.183 69.8765 416.296 70.1339 413.107C70.6088 407.226 72.8178 401.569 76.5463 396.885C81.4872 390.677 88.6916 386.687 96.5745 385.791C104.458 384.896 112.373 387.168 118.581 392.109C123.265 395.838 126.687 400.855 128.469 406.48C129.435 409.53 132.251 411.845 135.43 411.484Z"/>
</mask>
<path d="M135.43 411.484C138.609 411.123 140.933 408.236 140.133 405.138C137.893 396.462 132.887 388.689 125.796 383.044C117.185 376.19 106.203 373.037 95.2668 374.279C84.3306 375.522 74.3359 381.058 67.4814 389.669C61.837 396.76 58.7026 405.459 58.4655 414.415C58.3808 417.614 61.2933 419.906 64.4723 419.545C67.6512 419.183 69.8765 416.296 70.1339 413.107C70.6088 407.226 72.8178 401.569 76.5463 396.885C81.4872 390.677 88.6916 386.687 96.5745 385.791C104.458 384.896 112.373 387.168 118.581 392.109C123.265 395.838 126.687 400.855 128.469 406.48C129.435 409.53 132.251 411.845 135.43 411.484Z" stroke="white" stroke-width="2" mask="url(#path-14-outside-14_12_1697)"/>
<mask id="path-15-outside-15_12_1697" maskUnits="userSpaceOnUse" x="549.73" y="312.051" width="89.4233" height="53.3132" fill="black">
<rect fill="white" x="549.73" y="312.051" width="89.4233" height="53.3132"/>
<path d="M632.234 355.046C635.413 354.685 637.738 351.798 636.938 348.7C634.698 340.025 629.692 332.251 622.601 326.607C613.989 319.752 603.008 316.599 592.071 317.842C581.135 319.084 571.141 324.62 564.286 333.231C558.642 340.323 555.507 349.021 555.27 357.978C555.185 361.176 558.098 363.468 561.277 363.107C564.456 362.746 566.681 359.859 566.939 356.67C567.413 350.788 569.622 345.131 573.351 340.447C578.292 334.239 585.496 330.249 593.379 329.354C601.262 328.458 609.178 330.731 615.385 335.672C620.069 339.4 623.491 344.417 625.273 350.043C626.239 353.093 629.056 355.407 632.234 355.046Z"/>
</mask>
<path d="M632.234 355.046C635.413 354.685 637.738 351.798 636.938 348.7C634.698 340.025 629.692 332.251 622.601 326.607C613.989 319.752 603.008 316.599 592.071 317.842C581.135 319.084 571.141 324.62 564.286 333.231C558.642 340.323 555.507 349.021 555.27 357.978C555.185 361.176 558.098 363.468 561.277 363.107C564.456 362.746 566.681 359.859 566.939 356.67C567.413 350.788 569.622 345.131 573.351 340.447C578.292 334.239 585.496 330.249 593.379 329.354C601.262 328.458 609.178 330.731 615.385 335.672C620.069 339.4 623.491 344.417 625.273 350.043C626.239 353.093 629.056 355.407 632.234 355.046Z" stroke="white" stroke-width="2" mask="url(#path-15-outside-15_12_1697)"/>
<mask id="path-16-outside-16_12_1697" maskUnits="userSpaceOnUse" x="37.0101" y="228.39" width="89.4233" height="53.3132" fill="black">
<rect fill="white" x="37.0101" y="228.39" width="89.4233" height="53.3132"/>
<path d="M119.514 271.385C122.693 271.024 125.018 268.137 124.218 265.039C121.978 256.364 116.972 248.59 109.881 242.946C101.269 236.091 90.2875 232.938 79.3514 234.18C68.4152 235.423 58.4205 240.959 51.566 249.57C45.9216 256.661 42.7872 265.36 42.5501 274.316C42.4654 277.515 45.3779 279.807 48.5569 279.446C51.7358 279.085 53.9611 276.197 54.2185 273.008C54.6934 267.127 56.9024 261.47 60.6309 256.786C65.5718 250.578 72.7761 246.588 80.6591 245.692C88.5421 244.797 96.458 247.07 102.665 252.01C107.349 255.739 110.771 260.756 112.553 266.382C113.519 269.432 116.336 271.746 119.514 271.385Z"/>
</mask>
<path d="M119.514 271.385C122.693 271.024 125.018 268.137 124.218 265.039C121.978 256.364 116.972 248.59 109.881 242.946C101.269 236.091 90.2875 232.938 79.3514 234.18C68.4152 235.423 58.4205 240.959 51.566 249.57C45.9216 256.661 42.7872 265.36 42.5501 274.316C42.4654 277.515 45.3779 279.807 48.5569 279.446C51.7358 279.085 53.9611 276.197 54.2185 273.008C54.6934 267.127 56.9024 261.47 60.6309 256.786C65.5718 250.578 72.7761 246.588 80.6591 245.692C88.5421 244.797 96.458 247.07 102.665 252.01C107.349 255.739 110.771 260.756 112.553 266.382C113.519 269.432 116.336 271.746 119.514 271.385Z" stroke="white" stroke-width="2" mask="url(#path-16-outside-16_12_1697)"/>
<mask id="path-17-outside-17_12_1697" maskUnits="userSpaceOnUse" x="533.815" y="171.952" width="89.4233" height="53.3132" fill="black">
<rect fill="white" x="533.815" y="171.952" width="89.4233" height="53.3132"/>
<path d="M616.319 214.947C619.498 214.586 621.822 211.699 621.022 208.601C618.782 199.926 613.777 192.152 606.685 186.508C598.074 179.653 587.092 176.5 576.156 177.743C565.22 178.985 555.225 184.521 548.371 193.133C542.726 200.224 539.592 208.922 539.355 217.879C539.27 221.077 542.183 223.369 545.361 223.008C548.54 222.647 550.766 219.76 551.023 216.571C551.498 210.689 553.707 205.032 557.435 200.348C562.376 194.141 569.581 190.15 577.464 189.255C585.347 188.359 593.263 190.632 599.47 195.573C604.154 199.301 607.576 204.319 609.358 209.944C610.324 212.994 613.14 215.308 616.319 214.947Z"/>
</mask>
<path d="M616.319 214.947C619.498 214.586 621.822 211.699 621.022 208.601C618.782 199.926 613.777 192.152 606.685 186.508C598.074 179.653 587.092 176.5 576.156 177.743C565.22 178.985 555.225 184.521 548.371 193.133C542.726 200.224 539.592 208.922 539.355 217.879C539.27 221.077 542.183 223.369 545.361 223.008C548.54 222.647 550.766 219.76 551.023 216.571C551.498 210.689 553.707 205.032 557.435 200.348C562.376 194.141 569.581 190.15 577.464 189.255C585.347 188.359 593.263 190.632 599.47 195.573C604.154 199.301 607.576 204.319 609.358 209.944C610.324 212.994 613.14 215.308 616.319 214.947Z" stroke="white" stroke-width="2" mask="url(#path-17-outside-17_12_1697)"/>
<mask id="path-18-outside-18_12_1697" maskUnits="userSpaceOnUse" x="269.497" y="60.0719" width="89.4233" height="53.3132" fill="black">
<rect fill="white" x="269.497" y="60.0719" width="89.4233" height="53.3132"/>
<path d="M352.001 103.067C355.18 102.706 357.504 99.8189 356.705 96.7211C354.464 88.0459 349.459 80.2722 342.368 74.6278C333.756 67.7733 322.774 64.6204 311.838 65.8627C300.902 67.1051 290.907 72.6409 284.053 81.2524C278.408 88.3436 275.274 97.042 275.037 105.999C274.952 109.197 277.865 111.489 281.044 111.128C284.223 110.767 286.448 107.88 286.705 104.691C287.18 98.809 289.389 93.152 293.118 88.4679C298.059 82.2605 305.263 78.2702 313.146 77.3747C321.029 76.4792 328.945 78.7518 335.152 83.6927C339.836 87.4212 343.258 92.4385 345.04 98.0638C346.006 101.114 348.822 103.428 352.001 103.067Z"/>
</mask>
<path d="M352.001 103.067C355.18 102.706 357.504 99.8189 356.705 96.7211C354.464 88.0459 349.459 80.2722 342.368 74.6278C333.756 67.7733 322.774 64.6204 311.838 65.8627C300.902 67.1051 290.907 72.6409 284.053 81.2524C278.408 88.3436 275.274 97.042 275.037 105.999C274.952 109.197 277.865 111.489 281.044 111.128C284.223 110.767 286.448 107.88 286.705 104.691C287.18 98.809 289.389 93.152 293.118 88.4679C298.059 82.2605 305.263 78.2702 313.146 77.3747C321.029 76.4792 328.945 78.7518 335.152 83.6927C339.836 87.4212 343.258 92.4385 345.04 98.0638C346.006 101.114 348.822 103.428 352.001 103.067Z" stroke="white" stroke-width="2" mask="url(#path-18-outside-18_12_1697)"/>
<mask id="path-19-outside-19_12_1697" maskUnits="userSpaceOnUse" x="766.302" y="3.6343" width="89.4233" height="53.3132" fill="black">
<rect fill="white" x="766.302" y="3.6343" width="89.4233" height="53.3132"/>
<path d="M848.806 46.6295C851.985 46.2683 854.309 43.3813 853.509 40.2835C851.269 31.6082 846.263 23.8346 839.172 18.1902C830.561 11.3356 819.579 8.18275 808.643 9.42511C797.707 10.6675 787.712 16.2033 780.857 24.8148C775.213 31.906 772.079 40.6044 771.842 49.561C771.757 52.7593 774.669 55.0515 777.848 54.6903C781.027 54.3292 783.253 51.4421 783.51 48.2531C783.985 42.3714 786.194 36.7144 789.922 32.0303C794.863 25.8229 802.068 21.8326 809.951 20.9371C817.834 20.0415 825.749 22.3142 831.957 27.2551C836.641 30.9835 840.063 36.0009 841.845 41.6262C842.811 44.6762 845.627 46.9906 848.806 46.6295Z"/>
</mask>
<path d="M848.806 46.6295C851.985 46.2683 854.309 43.3813 853.509 40.2835C851.269 31.6082 846.263 23.8346 839.172 18.1902C830.561 11.3356 819.579 8.18275 808.643 9.42511C797.707 10.6675 787.712 16.2033 780.857 24.8148C775.213 31.906 772.079 40.6044 771.842 49.561C771.757 52.7593 774.669 55.0515 777.848 54.6903C781.027 54.3292 783.253 51.4421 783.51 48.2531C783.985 42.3714 786.194 36.7144 789.922 32.0303C794.863 25.8229 802.068 21.8326 809.951 20.9371C817.834 20.0415 825.749 22.3142 831.957 27.2551C836.641 30.9835 840.063 36.0009 841.845 41.6262C842.811 44.6762 845.627 46.9906 848.806 46.6295Z" stroke="white" stroke-width="2" mask="url(#path-19-outside-19_12_1697)"/>
<mask id="path-20-outside-20_12_1697" maskUnits="userSpaceOnUse" x="301.328" y="340.27" width="89.4233" height="53.3132" fill="black">
<rect fill="white" x="301.328" y="340.27" width="89.4233" height="53.3132"/>
<path d="M383.832 383.265C387.011 382.904 389.335 380.017 388.535 376.919C386.295 368.244 381.29 360.47 374.198 354.826C365.587 347.971 354.605 344.818 343.669 346.061C332.733 347.303 322.738 352.839 315.884 361.45C310.239 368.541 307.105 377.24 306.868 386.196C306.783 389.395 309.696 391.687 312.875 391.326C316.054 390.965 318.279 388.078 318.536 384.888C319.011 379.007 321.22 373.35 324.949 368.666C329.889 362.458 337.094 358.468 344.977 357.573C352.86 356.677 360.776 358.95 366.983 363.891C371.667 367.619 375.089 372.636 376.871 378.262C377.837 381.312 380.653 383.626 383.832 383.265Z"/>
</mask>
<path d="M383.832 383.265C387.011 382.904 389.335 380.017 388.535 376.919C386.295 368.244 381.29 360.47 374.198 354.826C365.587 347.971 354.605 344.818 343.669 346.061C332.733 347.303 322.738 352.839 315.884 361.45C310.239 368.541 307.105 377.24 306.868 386.196C306.783 389.395 309.696 391.687 312.875 391.326C316.054 390.965 318.279 388.078 318.536 384.888C319.011 379.007 321.22 373.35 324.949 368.666C329.889 362.458 337.094 358.468 344.977 357.573C352.86 356.677 360.776 358.95 366.983 363.891C371.667 367.619 375.089 372.636 376.871 378.262C377.837 381.312 380.653 383.626 383.832 383.265Z" stroke="white" stroke-width="2" mask="url(#path-20-outside-20_12_1697)"/>
<mask id="path-21-outside-21_12_1697" maskUnits="userSpaceOnUse" x="798.132" y="283.832" width="89.4233" height="53.3132" fill="black">
<rect fill="white" x="798.132" y="283.832" width="89.4233" height="53.3132"/>
<path d="M880.637 326.827C883.816 326.466 886.14 323.579 885.34 320.481C883.1 311.806 878.094 304.032 871.003 298.388C862.392 291.533 851.41 288.381 840.474 289.623C829.538 290.865 819.543 296.401 812.688 305.013C807.044 312.104 803.909 320.802 803.672 329.759C803.588 332.957 806.5 335.249 809.679 334.888C812.858 334.527 815.083 331.64 815.341 328.451C815.816 322.569 818.025 316.912 821.753 312.228C826.694 306.021 833.898 302.03 841.781 301.135C849.664 300.239 857.58 302.512 863.788 307.453C868.472 311.181 871.893 316.199 873.675 321.824C874.642 324.874 877.458 327.188 880.637 326.827Z"/>
</mask>
<path d="M880.637 326.827C883.816 326.466 886.14 323.579 885.34 320.481C883.1 311.806 878.094 304.032 871.003 298.388C862.392 291.533 851.41 288.381 840.474 289.623C829.538 290.865 819.543 296.401 812.688 305.013C807.044 312.104 803.909 320.802 803.672 329.759C803.588 332.957 806.5 335.249 809.679 334.888C812.858 334.527 815.083 331.64 815.341 328.451C815.816 322.569 818.025 316.912 821.753 312.228C826.694 306.021 833.898 302.03 841.781 301.135C849.664 300.239 857.58 302.512 863.788 307.453C868.472 311.181 871.893 316.199 873.675 321.824C874.642 324.874 877.458 327.188 880.637 326.827Z" stroke="white" stroke-width="2" mask="url(#path-21-outside-21_12_1697)"/>
<mask id="path-22-outside-22_12_1697" maskUnits="userSpaceOnUse" x="285.412" y="200.171" width="89.4233" height="53.3132" fill="black">
<rect fill="white" x="285.412" y="200.171" width="89.4233" height="53.3132"/>
<path d="M367.917 243.166C371.096 242.805 373.42 239.918 372.62 236.82C370.38 228.145 365.374 220.371 358.283 214.727C349.672 207.872 338.69 204.719 327.754 205.962C316.818 207.204 306.823 212.74 299.968 221.351C294.324 228.442 291.189 237.141 290.952 246.098C290.868 249.296 293.78 251.588 296.959 251.227C300.138 250.866 302.363 247.979 302.621 244.79C303.096 238.908 305.305 233.251 309.033 228.567C313.974 222.359 321.178 218.369 329.061 217.474C336.944 216.578 344.86 218.851 351.068 223.792C355.752 227.52 359.173 232.537 360.955 238.163C361.922 241.213 364.738 243.527 367.917 243.166Z"/>
</mask>
<path d="M367.917 243.166C371.096 242.805 373.42 239.918 372.62 236.82C370.38 228.145 365.374 220.371 358.283 214.727C349.672 207.872 338.69 204.719 327.754 205.962C316.818 207.204 306.823 212.74 299.968 221.351C294.324 228.442 291.189 237.141 290.952 246.098C290.868 249.296 293.78 251.588 296.959 251.227C300.138 250.866 302.363 247.979 302.621 244.79C303.096 238.908 305.305 233.251 309.033 228.567C313.974 222.359 321.178 218.369 329.061 217.474C336.944 216.578 344.86 218.851 351.068 223.792C355.752 227.52 359.173 232.537 360.955 238.163C361.922 241.213 364.738 243.527 367.917 243.166Z" stroke="white" stroke-width="2" mask="url(#path-22-outside-22_12_1697)"/>
<mask id="path-23-outside-23_12_1697" maskUnits="userSpaceOnUse" x="782.217" y="143.733" width="89.4233" height="53.3132" fill="black">
<rect fill="white" x="782.217" y="143.733" width="89.4233" height="53.3132"/>
<path d="M864.721 186.728C867.9 186.367 870.224 183.48 869.425 180.382C867.184 171.707 862.179 163.933 855.088 158.289C846.476 151.435 835.494 148.282 824.558 149.524C813.622 150.766 803.627 156.302 796.773 164.914C791.128 172.005 787.994 180.703 787.757 189.66C787.672 192.858 790.585 195.15 793.764 194.789C796.943 194.428 799.168 191.541 799.425 188.352C799.9 182.47 802.109 176.813 805.838 172.129C810.779 165.922 817.983 161.931 825.866 161.036C833.749 160.14 841.665 162.413 847.872 167.354C852.556 171.082 855.978 176.1 857.76 181.725C858.726 184.775 861.542 187.089 864.721 186.728Z"/>
</mask>
<path d="M864.721 186.728C867.9 186.367 870.224 183.48 869.425 180.382C867.184 171.707 862.179 163.933 855.088 158.289C846.476 151.435 835.494 148.282 824.558 149.524C813.622 150.766 803.627 156.302 796.773 164.914C791.128 172.005 787.994 180.703 787.757 189.66C787.672 192.858 790.585 195.15 793.764 194.789C796.943 194.428 799.168 191.541 799.425 188.352C799.9 182.47 802.109 176.813 805.838 172.129C810.779 165.922 817.983 161.931 825.866 161.036C833.749 160.14 841.665 162.413 847.872 167.354C852.556 171.082 855.978 176.1 857.76 181.725C858.726 184.775 861.542 187.089 864.721 186.728Z" stroke="white" stroke-width="2" mask="url(#path-23-outside-23_12_1697)"/>
<mask id="path-24-outside-24_12_1697" maskUnits="userSpaceOnUse" x="-52.9093" y="172.18" width="89.4233" height="53.3132" fill="black">
<rect fill="white" x="-52.9093" y="172.18" width="89.4233" height="53.3132"/>
<path d="M-45.9904 182.498C-49.1693 182.859 -51.4935 185.746 -50.6936 188.844C-48.4535 197.519 -43.4478 205.293 -36.3567 210.937C-27.7451 217.792 -16.7634 220.945 -5.82725 219.703C5.10889 218.46 15.1036 212.924 21.9581 204.313C27.6025 197.222 30.7369 188.523 30.974 179.567C31.0587 176.368 28.1462 174.076 24.9672 174.437C21.7883 174.798 19.563 177.686 19.3056 180.875C18.8307 186.756 16.6217 192.413 12.8932 197.097C7.95233 203.305 0.74796 207.295 -7.13503 208.191C-15.018 209.086 -22.9339 206.813 -29.1412 201.873C-33.8253 198.144 -37.247 193.127 -39.0291 187.501C-39.9953 184.451 -42.8114 182.137 -45.9904 182.498Z"/>
</mask>
<path d="M-45.9904 182.498C-49.1693 182.859 -51.4935 185.746 -50.6936 188.844C-48.4535 197.519 -43.4478 205.293 -36.3567 210.937C-27.7451 217.792 -16.7634 220.945 -5.82725 219.703C5.10889 218.46 15.1036 212.924 21.9581 204.313C27.6025 197.222 30.7369 188.523 30.974 179.567C31.0587 176.368 28.1462 174.076 24.9672 174.437C21.7883 174.798 19.563 177.686 19.3056 180.875C18.8307 186.756 16.6217 192.413 12.8932 197.097C7.95233 203.305 0.74796 207.295 -7.13503 208.191C-15.018 209.086 -22.9339 206.813 -29.1412 201.873C-33.8253 198.144 -37.247 193.127 -39.0291 187.501C-39.9953 184.451 -42.8114 182.137 -45.9904 182.498Z" stroke="white" stroke-width="2" mask="url(#path-24-outside-24_12_1697)"/>
<mask id="path-25-outside-25_12_1697" maskUnits="userSpaceOnUse" x="443.895" y="115.742" width="89.4233" height="53.3132" fill="black">
<rect fill="white" x="443.895" y="115.742" width="89.4233" height="53.3132"/>
<path d="M450.814 126.06C447.635 126.422 445.311 129.309 446.111 132.406C448.351 141.082 453.357 148.855 460.448 154.5C469.059 161.354 480.041 164.507 490.977 163.265C501.914 162.022 511.908 156.487 518.763 147.875C524.407 140.784 527.542 132.086 527.779 123.129C527.863 119.931 524.951 117.638 521.772 118C518.593 118.361 516.368 121.248 516.11 124.437C515.635 130.319 513.426 135.976 509.698 140.66C504.757 146.867 497.553 150.857 489.67 151.753C481.787 152.648 473.871 150.376 467.663 145.435C462.979 141.706 459.558 136.689 457.776 131.064C456.809 128.014 453.993 125.699 450.814 126.06Z"/>
</mask>
<path d="M450.814 126.06C447.635 126.422 445.311 129.309 446.111 132.406C448.351 141.082 453.357 148.855 460.448 154.5C469.059 161.354 480.041 164.507 490.977 163.265C501.914 162.022 511.908 156.487 518.763 147.875C524.407 140.784 527.542 132.086 527.779 123.129C527.863 119.931 524.951 117.638 521.772 118C518.593 118.361 516.368 121.248 516.11 124.437C515.635 130.319 513.426 135.976 509.698 140.66C504.757 146.867 497.553 150.857 489.67 151.753C481.787 152.648 473.871 150.376 467.663 145.435C462.979 141.706 459.558 136.689 457.776 131.064C456.809 128.014 453.993 125.699 450.814 126.06Z" stroke="white" stroke-width="2" mask="url(#path-25-outside-25_12_1697)"/>
<mask id="path-26-outside-26_12_1697" maskUnits="userSpaceOnUse" x="475.726" y="395.94" width="89.4233" height="53.3132" fill="black">
<rect fill="white" x="475.726" y="395.94" width="89.4233" height="53.3132"/>
<path d="M482.645 406.258C479.466 406.619 477.142 409.507 477.942 412.604C480.182 421.28 485.188 429.053 492.279 434.698C500.89 441.552 511.872 444.705 522.808 443.463C533.744 442.22 543.739 436.684 550.594 428.073C556.238 420.982 559.372 412.283 559.61 403.327C559.694 400.128 556.782 397.836 553.603 398.197C550.424 398.559 548.198 401.446 547.941 404.635C547.466 410.516 545.257 416.173 541.529 420.857C536.588 427.065 529.383 431.055 521.5 431.951C513.617 432.846 505.702 430.574 499.494 425.633C494.81 421.904 491.388 416.887 489.606 411.262C488.64 408.212 485.824 405.897 482.645 406.258Z"/>
</mask>
<path d="M482.645 406.258C479.466 406.619 477.142 409.507 477.942 412.604C480.182 421.28 485.188 429.053 492.279 434.698C500.89 441.552 511.872 444.705 522.808 443.463C533.744 442.22 543.739 436.684 550.594 428.073C556.238 420.982 559.372 412.283 559.61 403.327C559.694 400.128 556.782 397.836 553.603 398.197C550.424 398.559 548.198 401.446 547.941 404.635C547.466 410.516 545.257 416.173 541.529 420.857C536.588 427.065 529.383 431.055 521.5 431.951C513.617 432.846 505.702 430.574 499.494 425.633C494.81 421.904 491.388 416.887 489.606 411.262C488.64 408.212 485.824 405.897 482.645 406.258Z" stroke="white" stroke-width="2" mask="url(#path-26-outside-26_12_1697)"/>
<mask id="path-27-outside-27_12_1697" maskUnits="userSpaceOnUse" x="-36.9938" y="312.279" width="89.4233" height="53.3132" fill="black">
<rect fill="white" x="-36.9938" y="312.279" width="89.4233" height="53.3132"/>
<path d="M-30.0749 322.597C-33.2539 322.958 -35.578 325.845 -34.7781 328.943C-32.538 337.618 -27.5324 345.392 -20.4412 351.036C-11.8297 357.891 -0.847932 361.044 10.0882 359.801C21.0244 358.559 31.0191 353.023 37.8736 344.412C43.518 337.321 46.6524 328.622 46.8895 319.665C46.9742 316.467 44.0616 314.175 40.8827 314.536C37.7038 314.897 35.4785 317.784 35.221 320.973C34.7462 326.855 32.5371 332.512 28.8087 337.196C23.8678 343.404 16.6634 347.394 8.78044 348.289C0.897457 349.185 -7.0184 346.912 -13.2257 341.971C-17.9099 338.243 -21.3316 333.226 -23.1136 327.6C-24.0798 324.55 -26.896 322.236 -30.0749 322.597Z"/>
</mask>
<path d="M-30.0749 322.597C-33.2539 322.958 -35.578 325.845 -34.7781 328.943C-32.538 337.618 -27.5324 345.392 -20.4412 351.036C-11.8297 357.891 -0.847932 361.044 10.0882 359.801C21.0244 358.559 31.0191 353.023 37.8736 344.412C43.518 337.321 46.6524 328.622 46.8895 319.665C46.9742 316.467 44.0616 314.175 40.8827 314.536C37.7038 314.897 35.4785 317.784 35.221 320.973C34.7462 326.855 32.5371 332.512 28.8087 337.196C23.8678 343.404 16.6634 347.394 8.78044 348.289C0.897457 349.185 -7.0184 346.912 -13.2257 341.971C-17.9099 338.243 -21.3316 333.226 -23.1136 327.6C-24.0798 324.55 -26.896 322.236 -30.0749 322.597Z" stroke="white" stroke-width="2" mask="url(#path-27-outside-27_12_1697)"/>
<mask id="path-28-outside-28_12_1697" maskUnits="userSpaceOnUse" x="459.811" y="255.841" width="89.4233" height="53.3132" fill="black">
<rect fill="white" x="459.811" y="255.841" width="89.4233" height="53.3132"/>
<path d="M466.73 266.159C463.551 266.52 461.227 269.408 462.026 272.505C464.267 281.181 469.272 288.954 476.363 294.599C484.975 301.453 495.957 304.606 506.893 303.364C517.829 302.121 527.824 296.586 534.678 287.974C540.323 280.883 543.457 272.184 543.694 263.228C543.779 260.03 540.866 257.737 537.687 258.098C534.508 258.46 532.283 261.347 532.026 264.536C531.551 270.417 529.342 276.074 525.613 280.759C520.672 286.966 513.468 290.956 505.585 291.852C497.702 292.747 489.786 290.475 483.579 285.534C478.895 281.805 475.473 276.788 473.691 271.163C472.725 268.113 469.909 265.798 466.73 266.159Z"/>
</mask>
<path d="M466.73 266.159C463.551 266.52 461.227 269.408 462.026 272.505C464.267 281.181 469.272 288.954 476.363 294.599C484.975 301.453 495.957 304.606 506.893 303.364C517.829 302.121 527.824 296.586 534.678 287.974C540.323 280.883 543.457 272.184 543.694 263.228C543.779 260.03 540.866 257.737 537.687 258.098C534.508 258.46 532.283 261.347 532.026 264.536C531.551 270.417 529.342 276.074 525.613 280.759C520.672 286.966 513.468 290.956 505.585 291.852C497.702 292.747 489.786 290.475 483.579 285.534C478.895 281.805 475.473 276.788 473.691 271.163C472.725 268.113 469.909 265.798 466.73 266.159Z" stroke="white" stroke-width="2" mask="url(#path-28-outside-28_12_1697)"/>
<mask id="path-29-outside-29_12_1697" maskUnits="userSpaceOnUse" x="195.493" y="143.961" width="89.4233" height="53.3132" fill="black">
<rect fill="white" x="195.493" y="143.961" width="89.4233" height="53.3132"/>
<path d="M202.412 154.279C199.233 154.64 196.909 157.527 197.709 160.625C199.949 169.301 204.954 177.074 212.046 182.719C220.657 189.573 231.639 192.726 242.575 191.484C253.511 190.241 263.506 184.705 270.36 176.094C276.005 169.003 279.139 160.304 279.376 151.348C279.461 148.149 276.548 145.857 273.37 146.218C270.191 146.58 267.965 149.467 267.708 152.656C267.233 158.537 265.024 164.194 261.296 168.878C256.355 175.086 249.15 179.076 241.267 179.972C233.384 180.867 225.468 178.595 219.261 173.654C214.577 169.925 211.155 164.908 209.373 159.283C208.407 156.233 205.591 153.918 202.412 154.279Z"/>
</mask>
<path d="M202.412 154.279C199.233 154.64 196.909 157.527 197.709 160.625C199.949 169.301 204.954 177.074 212.046 182.719C220.657 189.573 231.639 192.726 242.575 191.484C253.511 190.241 263.506 184.705 270.36 176.094C276.005 169.003 279.139 160.304 279.376 151.348C279.461 148.149 276.548 145.857 273.37 146.218C270.191 146.58 267.965 149.467 267.708 152.656C267.233 158.537 265.024 164.194 261.296 168.878C256.355 175.086 249.15 179.076 241.267 179.972C233.384 180.867 225.468 178.595 219.261 173.654C214.577 169.925 211.155 164.908 209.373 159.283C208.407 156.233 205.591 153.918 202.412 154.279Z" stroke="white" stroke-width="2" mask="url(#path-29-outside-29_12_1697)"/>
<mask id="path-30-outside-30_12_1697" maskUnits="userSpaceOnUse" x="692.298" y="87.5236" width="89.4233" height="53.3132" fill="black">
<rect fill="white" x="692.298" y="87.5236" width="89.4233" height="53.3132"/>
<path d="M699.217 97.8417C696.038 98.2028 693.713 101.09 694.513 104.188C696.753 112.863 701.759 120.637 708.85 126.281C717.462 133.135 728.444 136.288 739.38 135.046C750.316 133.804 760.311 128.268 767.165 119.656C772.809 112.565 775.944 103.867 776.181 94.9101C776.266 91.7118 773.353 89.4197 770.174 89.7808C766.995 90.1419 764.77 93.0291 764.512 96.2181C764.038 102.1 761.829 107.757 758.1 112.441C753.159 118.648 745.955 122.639 738.072 123.534C730.189 124.43 722.273 122.157 716.066 117.216C711.382 113.488 707.96 108.47 706.178 102.845C705.212 99.795 702.395 97.4805 699.217 97.8417Z"/>
</mask>
<path d="M699.217 97.8417C696.038 98.2028 693.713 101.09 694.513 104.188C696.753 112.863 701.759 120.637 708.85 126.281C717.462 133.135 728.444 136.288 739.38 135.046C750.316 133.804 760.311 128.268 767.165 119.656C772.809 112.565 775.944 103.867 776.181 94.9101C776.266 91.7118 773.353 89.4197 770.174 89.7808C766.995 90.1419 764.77 93.0291 764.512 96.2181C764.038 102.1 761.829 107.757 758.1 112.441C753.159 118.648 745.955 122.639 738.072 123.534C730.189 124.43 722.273 122.157 716.066 117.216C711.382 113.488 707.96 108.47 706.178 102.845C705.212 99.795 702.395 97.4805 699.217 97.8417Z" stroke="white" stroke-width="2" mask="url(#path-30-outside-30_12_1697)"/>
<mask id="path-31-outside-31_12_1697" maskUnits="userSpaceOnUse" x="724.128" y="367.721" width="89.4233" height="53.3132" fill="black">
<rect fill="white" x="724.128" y="367.721" width="89.4233" height="53.3132"/>
<path d="M731.047 378.039C727.868 378.401 725.544 381.288 726.344 384.385C728.584 393.061 733.59 400.834 740.681 406.479C749.293 413.333 760.274 416.486 771.211 415.244C782.147 414.001 792.141 408.466 798.996 399.854C804.64 392.763 807.775 384.065 808.012 375.108C808.096 371.91 805.184 369.617 802.005 369.979C798.826 370.34 796.601 373.227 796.343 376.416C795.868 382.297 793.659 387.954 789.931 392.639C784.99 398.846 777.786 402.836 769.903 403.732C762.02 404.627 754.104 402.355 747.897 397.414C743.212 393.685 739.791 388.668 738.009 383.043C737.042 379.993 734.226 377.678 731.047 378.039Z"/>
</mask>
<path d="M731.047 378.039C727.868 378.401 725.544 381.288 726.344 384.385C728.584 393.061 733.59 400.834 740.681 406.479C749.293 413.333 760.274 416.486 771.211 415.244C782.147 414.001 792.141 408.466 798.996 399.854C804.64 392.763 807.775 384.065 808.012 375.108C808.096 371.91 805.184 369.617 802.005 369.979C798.826 370.34 796.601 373.227 796.343 376.416C795.868 382.297 793.659 387.954 789.931 392.639C784.99 398.846 777.786 402.836 769.903 403.732C762.02 404.627 754.104 402.355 747.897 397.414C743.212 393.685 739.791 388.668 738.009 383.043C737.042 379.993 734.226 377.678 731.047 378.039Z" stroke="white" stroke-width="2" mask="url(#path-31-outside-31_12_1697)"/>
<mask id="path-32-outside-32_12_1697" maskUnits="userSpaceOnUse" x="211.408" y="284.06" width="89.4233" height="53.3132" fill="black">
<rect fill="white" x="211.408" y="284.06" width="89.4233" height="53.3132"/>
<path d="M218.327 294.378C215.148 294.739 212.824 297.626 213.624 300.724C215.864 309.399 220.87 317.173 227.961 322.818C236.573 329.672 247.554 332.825 258.49 331.583C269.427 330.34 279.421 324.804 286.276 316.193C291.92 309.102 295.055 300.403 295.292 291.447C295.376 288.248 292.464 285.956 289.285 286.317C286.106 286.678 283.881 289.566 283.623 292.755C283.148 298.636 280.939 304.293 277.211 308.977C272.27 315.185 265.066 319.175 257.183 320.071C249.3 320.966 241.384 318.693 235.177 313.753C230.492 310.024 227.071 305.007 225.289 299.382C224.322 296.332 221.506 294.017 218.327 294.378Z"/>
</mask>
<path d="M218.327 294.378C215.148 294.739 212.824 297.626 213.624 300.724C215.864 309.399 220.87 317.173 227.961 322.818C236.573 329.672 247.554 332.825 258.49 331.583C269.427 330.34 279.421 324.804 286.276 316.193C291.92 309.102 295.055 300.403 295.292 291.447C295.376 288.248 292.464 285.956 289.285 286.317C286.106 286.678 283.881 289.566 283.623 292.755C283.148 298.636 280.939 304.293 277.211 308.977C272.27 315.185 265.066 319.175 257.183 320.071C249.3 320.966 241.384 318.693 235.177 313.753C230.492 310.024 227.071 305.007 225.289 299.382C224.322 296.332 221.506 294.017 218.327 294.378Z" stroke="white" stroke-width="2" mask="url(#path-32-outside-32_12_1697)"/>
<mask id="path-33-outside-33_12_1697" maskUnits="userSpaceOnUse" x="708.213" y="227.623" width="89.4233" height="53.3132" fill="black">
<rect fill="white" x="708.213" y="227.623" width="89.4233" height="53.3132"/>
<path d="M715.132 237.941C711.953 238.302 709.629 241.189 710.429 244.287C712.669 252.962 717.675 260.735 724.766 266.38C733.377 273.234 744.359 276.387 755.295 275.145C766.231 273.903 776.226 268.367 783.08 259.755C788.725 252.664 791.859 243.966 792.096 235.009C792.181 231.811 789.269 229.519 786.09 229.88C782.911 230.241 780.685 233.128 780.428 236.317C779.953 242.199 777.744 247.856 774.016 252.54C769.075 258.747 761.87 262.737 753.987 263.633C746.104 264.528 738.188 262.256 731.981 257.315C727.297 253.586 723.875 248.569 722.093 242.944C721.127 239.894 718.311 237.579 715.132 237.941Z"/>
</mask>
<path d="M715.132 237.941C711.953 238.302 709.629 241.189 710.429 244.287C712.669 252.962 717.675 260.735 724.766 266.38C733.377 273.234 744.359 276.387 755.295 275.145C766.231 273.903 776.226 268.367 783.08 259.755C788.725 252.664 791.859 243.966 792.096 235.009C792.181 231.811 789.269 229.519 786.09 229.88C782.911 230.241 780.685 233.128 780.428 236.317C779.953 242.199 777.744 247.856 774.016 252.54C769.075 258.747 761.87 262.737 753.987 263.633C746.104 264.528 738.188 262.256 731.981 257.315C727.297 253.586 723.875 248.569 722.093 242.944C721.127 239.894 718.311 237.579 715.132 237.941Z" stroke="white" stroke-width="2" mask="url(#path-33-outside-33_12_1697)"/>
<mask id="path-34-outside-34_12_1697" maskUnits="userSpaceOnUse" x="71.2919" y="158.071" width="89.4233" height="53.3132" fill="black">
<rect fill="white" x="71.2919" y="158.071" width="89.4233" height="53.3132"/>
<path d="M78.2108 168.389C75.0319 168.75 72.7077 171.637 73.5076 174.735C75.7477 183.41 80.7534 191.184 87.8445 196.828C96.456 203.683 107.438 206.835 118.374 205.593C129.31 204.351 139.305 198.815 146.159 190.203C151.804 183.112 154.938 174.414 155.175 165.457C155.26 162.259 152.347 159.967 149.168 160.328C145.989 160.689 143.764 163.576 143.507 166.765C143.032 172.647 140.823 178.304 137.094 182.988C132.154 189.195 124.949 193.186 117.066 194.081C109.183 194.977 101.267 192.704 95.06 187.763C90.3758 184.035 86.9541 179.017 85.1721 173.392C84.2059 170.342 81.3897 168.028 78.2108 168.389Z"/>
</mask>
<path d="M78.2108 168.389C75.0319 168.75 72.7077 171.637 73.5076 174.735C75.7477 183.41 80.7534 191.184 87.8445 196.828C96.456 203.683 107.438 206.835 118.374 205.593C129.31 204.351 139.305 198.815 146.159 190.203C151.804 183.112 154.938 174.414 155.175 165.457C155.26 162.259 152.347 159.967 149.168 160.328C145.989 160.689 143.764 163.576 143.507 166.765C143.032 172.647 140.823 178.304 137.094 182.988C132.154 189.195 124.949 193.186 117.066 194.081C109.183 194.977 101.267 192.704 95.06 187.763C90.3758 184.035 86.9541 179.017 85.1721 173.392C84.2059 170.342 81.3897 168.028 78.2108 168.389Z" stroke="white" stroke-width="2" mask="url(#path-34-outside-34_12_1697)"/>
<mask id="path-35-outside-35_12_1697" maskUnits="userSpaceOnUse" x="568.096" y="101.633" width="89.4233" height="53.3132" fill="black">
<rect fill="white" x="568.096" y="101.633" width="89.4233" height="53.3132"/>
<path d="M575.015 111.951C571.836 112.312 569.512 115.199 570.312 118.297C572.552 126.972 577.558 134.746 584.649 140.39C593.261 147.245 604.242 150.398 615.179 149.155C626.115 147.913 636.109 142.377 642.964 133.766C648.608 126.675 651.743 117.976 651.98 109.019C652.064 105.821 649.152 103.529 645.973 103.89C642.794 104.251 640.569 107.138 640.311 110.327C639.837 116.209 637.627 121.866 633.899 126.55C628.958 132.758 621.754 136.748 613.871 137.643C605.988 138.539 598.072 136.266 591.865 131.325C587.18 127.597 583.759 122.58 581.977 116.954C581.011 113.904 578.194 111.59 575.015 111.951Z"/>
</mask>
<path d="M575.015 111.951C571.836 112.312 569.512 115.199 570.312 118.297C572.552 126.972 577.558 134.746 584.649 140.39C593.261 147.245 604.242 150.398 615.179 149.155C626.115 147.913 636.109 142.377 642.964 133.766C648.608 126.675 651.743 117.976 651.98 109.019C652.064 105.821 649.152 103.529 645.973 103.89C642.794 104.251 640.569 107.138 640.311 110.327C639.837 116.209 637.627 121.866 633.899 126.55C628.958 132.758 621.754 136.748 613.871 137.643C605.988 138.539 598.072 136.266 591.865 131.325C587.18 127.597 583.759 122.58 581.977 116.954C581.011 113.904 578.194 111.59 575.015 111.951Z" stroke="white" stroke-width="2" mask="url(#path-35-outside-35_12_1697)"/>
<mask id="path-36-outside-36_12_1697" maskUnits="userSpaceOnUse" x="599.927" y="381.831" width="89.4233" height="53.3132" fill="black">
<rect fill="white" x="599.927" y="381.831" width="89.4233" height="53.3132"/>
<path d="M606.846 392.149C603.667 392.51 601.343 395.397 602.143 398.495C604.383 407.17 609.389 414.944 616.48 420.588C625.091 427.443 636.073 430.596 647.009 429.353C657.946 428.111 667.94 422.575 674.795 413.964C680.439 406.872 683.574 398.174 683.811 389.217C683.895 386.019 680.983 383.727 677.804 384.088C674.625 384.449 672.4 387.336 672.142 390.525C671.667 396.407 669.458 402.064 665.73 406.748C660.789 412.955 653.585 416.946 645.702 417.841C637.819 418.737 629.903 416.464 623.695 411.523C619.011 407.795 615.59 402.777 613.808 397.152C612.841 394.102 610.025 391.788 606.846 392.149Z"/>
</mask>
<path d="M606.846 392.149C603.667 392.51 601.343 395.397 602.143 398.495C604.383 407.17 609.389 414.944 616.48 420.588C625.091 427.443 636.073 430.596 647.009 429.353C657.946 428.111 667.94 422.575 674.795 413.964C680.439 406.872 683.574 398.174 683.811 389.217C683.895 386.019 680.983 383.727 677.804 384.088C674.625 384.449 672.4 387.336 672.142 390.525C671.667 396.407 669.458 402.064 665.73 406.748C660.789 412.955 653.585 416.946 645.702 417.841C637.819 418.737 629.903 416.464 623.695 411.523C619.011 407.795 615.59 402.777 613.808 397.152C612.841 394.102 610.025 391.788 606.846 392.149Z" stroke="white" stroke-width="2" mask="url(#path-36-outside-36_12_1697)"/>
<mask id="path-37-outside-37_12_1697" maskUnits="userSpaceOnUse" x="87.2073" y="298.17" width="89.4233" height="53.3132" fill="black">
<rect fill="white" x="87.2073" y="298.17" width="89.4233" height="53.3132"/>
<path d="M94.1262 308.488C90.9473 308.849 88.6231 311.736 89.423 314.834C91.6631 323.509 96.6688 331.282 103.76 336.927C112.371 343.781 123.353 346.934 134.289 345.692C145.225 344.45 155.22 338.914 162.075 330.302C167.719 323.211 170.854 314.513 171.091 305.556C171.175 302.358 168.263 300.066 165.084 300.427C161.905 300.788 159.68 303.675 159.422 306.864C158.947 312.746 156.738 318.403 153.01 323.087C148.069 329.294 140.865 333.284 132.982 334.18C125.099 335.076 117.183 332.803 110.975 327.862C106.291 324.134 102.87 319.116 101.088 313.491C100.121 310.441 97.3052 308.126 94.1262 308.488Z"/>
</mask>
<path d="M94.1262 308.488C90.9473 308.849 88.6231 311.736 89.423 314.834C91.6631 323.509 96.6688 331.282 103.76 336.927C112.371 343.781 123.353 346.934 134.289 345.692C145.225 344.45 155.22 338.914 162.075 330.302C167.719 323.211 170.854 314.513 171.091 305.556C171.175 302.358 168.263 300.066 165.084 300.427C161.905 300.788 159.68 303.675 159.422 306.864C158.947 312.746 156.738 318.403 153.01 323.087C148.069 329.294 140.865 333.284 132.982 334.18C125.099 335.076 117.183 332.803 110.975 327.862C106.291 324.134 102.87 319.116 101.088 313.491C100.121 310.441 97.3052 308.126 94.1262 308.488Z" stroke="white" stroke-width="2" mask="url(#path-37-outside-37_12_1697)"/>
<mask id="path-38-outside-38_12_1697" maskUnits="userSpaceOnUse" x="584.012" y="241.732" width="89.4233" height="53.3132" fill="black">
<rect fill="white" x="584.012" y="241.732" width="89.4233" height="53.3132"/>
<path d="M590.931 252.05C587.752 252.411 585.428 255.298 586.228 258.396C588.468 267.071 593.473 274.845 600.565 280.489C609.176 287.344 620.158 290.497 631.094 289.254C642.03 288.012 652.025 282.476 658.879 273.865C664.524 266.773 667.658 258.075 667.895 249.118C667.98 245.92 665.067 243.628 661.888 243.989C658.709 244.35 656.484 247.237 656.227 250.426C655.752 256.308 653.543 261.965 649.814 266.649C644.874 272.857 637.669 276.847 629.786 277.742C621.903 278.638 613.987 276.365 607.78 271.424C603.096 267.696 599.674 262.679 597.892 257.053C596.926 254.003 594.11 251.689 590.931 252.05Z"/>
</mask>
<path d="M590.931 252.05C587.752 252.411 585.428 255.298 586.228 258.396C588.468 267.071 593.473 274.845 600.565 280.489C609.176 287.344 620.158 290.497 631.094 289.254C642.03 288.012 652.025 282.476 658.879 273.865C664.524 266.773 667.658 258.075 667.895 249.118C667.98 245.92 665.067 243.628 661.888 243.989C658.709 244.35 656.484 247.237 656.227 250.426C655.752 256.308 653.543 261.965 649.814 266.649C644.874 272.857 637.669 276.847 629.786 277.742C621.903 278.638 613.987 276.365 607.78 271.424C603.096 267.696 599.674 262.679 597.892 257.053C596.926 254.003 594.11 251.689 590.931 252.05Z" stroke="white" stroke-width="2" mask="url(#path-38-outside-38_12_1697)"/>
<mask id="path-39-outside-39_12_1697" maskUnits="userSpaceOnUse" x="319.694" y="129.852" width="89.4233" height="53.3132" fill="black">
<rect fill="white" x="319.694" y="129.852" width="89.4233" height="53.3132"/>
<path d="M326.613 140.17C323.434 140.531 321.11 143.418 321.91 146.516C324.15 155.191 329.156 162.965 336.247 168.609C344.858 175.464 355.84 178.617 366.776 177.374C377.712 176.132 387.707 170.596 394.562 161.985C400.206 154.893 403.34 146.195 403.578 137.238C403.662 134.04 400.75 131.748 397.571 132.109C394.392 132.47 392.166 135.357 391.909 138.546C391.434 144.428 389.225 150.085 385.497 154.769C380.556 160.976 373.351 164.967 365.468 165.862C357.585 166.758 349.67 164.485 343.462 159.544C338.778 155.816 335.356 150.798 333.574 145.173C332.608 142.123 329.792 139.809 326.613 140.17Z"/>
</mask>
<path d="M326.613 140.17C323.434 140.531 321.11 143.418 321.91 146.516C324.15 155.191 329.156 162.965 336.247 168.609C344.858 175.464 355.84 178.617 366.776 177.374C377.712 176.132 387.707 170.596 394.562 161.985C400.206 154.893 403.34 146.195 403.578 137.238C403.662 134.04 400.75 131.748 397.571 132.109C394.392 132.47 392.166 135.357 391.909 138.546C391.434 144.428 389.225 150.085 385.497 154.769C380.556 160.976 373.351 164.967 365.468 165.862C357.585 166.758 349.67 164.485 343.462 159.544C338.778 155.816 335.356 150.798 333.574 145.173C332.608 142.123 329.792 139.809 326.613 140.17Z" stroke="white" stroke-width="2" mask="url(#path-39-outside-39_12_1697)"/>
<mask id="path-40-outside-40_12_1697" maskUnits="userSpaceOnUse" x="816.499" y="73.4142" width="89.4233" height="53.3132" fill="black">
<rect fill="white" x="816.499" y="73.4142" width="89.4233" height="53.3132"/>
<path d="M823.418 83.7322C820.239 84.0934 817.915 86.9804 818.714 90.0782C820.955 98.7535 825.96 106.527 833.051 112.172C841.663 119.026 852.645 122.179 863.581 120.937C874.517 119.694 884.512 114.158 891.366 105.547C897.011 98.4557 900.145 89.7573 900.382 80.8007C900.467 77.6024 897.554 75.3102 894.375 75.6714C891.196 76.0325 888.971 78.9196 888.714 82.1086C888.239 87.9903 886.03 93.6473 882.301 98.3314C877.36 104.539 870.156 108.529 862.273 109.425C854.39 110.32 846.474 108.047 840.267 103.107C835.583 99.3781 832.161 94.3608 830.379 88.7355C829.413 85.6855 826.597 83.3711 823.418 83.7322Z"/>
</mask>
<path d="M823.418 83.7322C820.239 84.0934 817.915 86.9804 818.714 90.0782C820.955 98.7535 825.96 106.527 833.051 112.172C841.663 119.026 852.645 122.179 863.581 120.937C874.517 119.694 884.512 114.158 891.366 105.547C897.011 98.4557 900.145 89.7573 900.382 80.8007C900.467 77.6024 897.554 75.3102 894.375 75.6714C891.196 76.0325 888.971 78.9196 888.714 82.1086C888.239 87.9903 886.03 93.6473 882.301 98.3314C877.36 104.539 870.156 108.529 862.273 109.425C854.39 110.32 846.474 108.047 840.267 103.107C835.583 99.3781 832.161 94.3608 830.379 88.7355C829.413 85.6855 826.597 83.3711 823.418 83.7322Z" stroke="white" stroke-width="2" mask="url(#path-40-outside-40_12_1697)"/>
<mask id="path-41-outside-41_12_1697" maskUnits="userSpaceOnUse" x="351.525" y="410.05" width="89.4233" height="53.3132" fill="black">
<rect fill="white" x="351.525" y="410.05" width="89.4233" height="53.3132"/>
<path d="M358.444 420.368C355.265 420.729 352.941 423.616 353.741 426.714C355.981 435.389 360.986 443.163 368.078 448.807C376.689 455.661 387.671 458.814 398.607 457.572C409.543 456.33 419.538 450.794 426.392 442.182C432.037 435.091 435.171 426.393 435.408 417.436C435.493 414.238 432.58 411.946 429.402 412.307C426.223 412.668 423.997 415.555 423.74 418.744C423.265 424.626 421.056 430.283 417.328 434.967C412.387 441.174 405.182 445.165 397.299 446.06C389.416 446.956 381.5 444.683 375.293 439.742C370.609 436.014 367.187 430.996 365.405 425.371C364.439 422.321 361.623 420.007 358.444 420.368Z"/>
</mask>
<path d="M358.444 420.368C355.265 420.729 352.941 423.616 353.741 426.714C355.981 435.389 360.986 443.163 368.078 448.807C376.689 455.661 387.671 458.814 398.607 457.572C409.543 456.33 419.538 450.794 426.392 442.182C432.037 435.091 435.171 426.393 435.408 417.436C435.493 414.238 432.58 411.946 429.402 412.307C426.223 412.668 423.997 415.555 423.74 418.744C423.265 424.626 421.056 430.283 417.328 434.967C412.387 441.174 405.182 445.165 397.299 446.06C389.416 446.956 381.5 444.683 375.293 439.742C370.609 436.014 367.187 430.996 365.405 425.371C364.439 422.321 361.623 420.007 358.444 420.368Z" stroke="white" stroke-width="2" mask="url(#path-41-outside-41_12_1697)"/>
<mask id="path-42-outside-42_12_1697" maskUnits="userSpaceOnUse" x="848.33" y="353.612" width="89.4233" height="53.3132" fill="black">
<rect fill="white" x="848.33" y="353.612" width="89.4233" height="53.3132"/>
<path d="M855.249 363.93C852.07 364.291 849.745 367.178 850.545 370.276C852.785 378.951 857.791 386.725 864.882 392.369C873.494 399.224 884.476 402.377 895.412 401.134C906.348 399.892 916.343 394.356 923.197 385.745C928.841 378.654 931.976 369.955 932.213 360.998C932.298 357.8 929.385 355.508 926.206 355.869C923.027 356.23 920.802 359.117 920.544 362.306C920.07 368.188 917.861 373.845 914.132 378.529C909.191 384.737 901.987 388.727 894.104 389.622C886.221 390.518 878.305 388.245 872.098 383.304C867.414 379.576 863.992 374.559 862.21 368.933C861.244 365.883 858.427 363.569 855.249 363.93Z"/>
</mask>
<path d="M855.249 363.93C852.07 364.291 849.745 367.178 850.545 370.276C852.785 378.951 857.791 386.725 864.882 392.369C873.494 399.224 884.476 402.377 895.412 401.134C906.348 399.892 916.343 394.356 923.197 385.745C928.841 378.654 931.976 369.955 932.213 360.998C932.298 357.8 929.385 355.508 926.206 355.869C923.027 356.23 920.802 359.117 920.544 362.306C920.07 368.188 917.861 373.845 914.132 378.529C909.191 384.737 901.987 388.727 894.104 389.622C886.221 390.518 878.305 388.245 872.098 383.304C867.414 379.576 863.992 374.559 862.21 368.933C861.244 365.883 858.427 363.569 855.249 363.93Z" stroke="white" stroke-width="2" mask="url(#path-42-outside-42_12_1697)"/>
<mask id="path-43-outside-43_12_1697" maskUnits="userSpaceOnUse" x="335.61" y="269.951" width="89.4233" height="53.3132" fill="black">
<rect fill="white" x="335.61" y="269.951" width="89.4233" height="53.3132"/>
<path d="M342.529 280.269C339.35 280.63 337.025 283.517 337.825 286.615C340.065 295.29 345.071 303.064 352.162 308.708C360.774 315.563 371.755 318.716 382.692 317.473C393.628 316.231 403.622 310.695 410.477 302.083C416.121 294.992 419.256 286.294 419.493 277.337C419.578 274.139 416.665 271.847 413.486 272.208C410.307 272.569 408.082 275.456 407.824 278.645C407.35 284.527 405.141 290.184 401.412 294.868C396.471 301.075 389.267 305.066 381.384 305.961C373.501 306.857 365.585 304.584 359.378 299.643C354.694 295.915 351.272 290.897 349.49 285.272C348.524 282.222 345.707 279.908 342.529 280.269Z"/>
</mask>
<path d="M342.529 280.269C339.35 280.63 337.025 283.517 337.825 286.615C340.065 295.29 345.071 303.064 352.162 308.708C360.774 315.563 371.755 318.716 382.692 317.473C393.628 316.231 403.622 310.695 410.477 302.083C416.121 294.992 419.256 286.294 419.493 277.337C419.578 274.139 416.665 271.847 413.486 272.208C410.307 272.569 408.082 275.456 407.824 278.645C407.35 284.527 405.141 290.184 401.412 294.868C396.471 301.075 389.267 305.066 381.384 305.961C373.501 306.857 365.585 304.584 359.378 299.643C354.694 295.915 351.272 290.897 349.49 285.272C348.524 282.222 345.707 279.908 342.529 280.269Z" stroke="white" stroke-width="2" mask="url(#path-43-outside-43_12_1697)"/>
<mask id="path-44-outside-44_12_1697" maskUnits="userSpaceOnUse" x="832.414" y="213.513" width="89.4233" height="53.3132" fill="black">
<rect fill="white" x="832.414" y="213.513" width="89.4233" height="53.3132"/>
<path d="M839.333 223.831C836.154 224.192 833.83 227.079 834.63 230.177C836.87 238.852 841.876 246.626 848.967 252.27C857.578 259.125 868.56 262.278 879.496 261.035C890.432 259.793 900.427 254.257 907.282 245.646C912.926 238.555 916.06 229.856 916.298 220.9C916.382 217.701 913.47 215.409 910.291 215.77C907.112 216.131 904.887 219.019 904.629 222.208C904.154 228.089 901.945 233.746 898.217 238.43C893.276 244.638 886.071 248.628 878.188 249.524C870.305 250.419 862.39 248.146 856.182 243.205C851.498 239.477 848.076 234.46 846.294 228.834C845.328 225.784 842.512 223.47 839.333 223.831Z"/>
</mask>
<path d="M839.333 223.831C836.154 224.192 833.83 227.079 834.63 230.177C836.87 238.852 841.876 246.626 848.967 252.27C857.578 259.125 868.56 262.278 879.496 261.035C890.432 259.793 900.427 254.257 907.282 245.646C912.926 238.555 916.06 229.856 916.298 220.9C916.382 217.701 913.47 215.409 910.291 215.77C907.112 216.131 904.887 219.019 904.629 222.208C904.154 228.089 901.945 233.746 898.217 238.43C893.276 244.638 886.071 248.628 878.188 249.524C870.305 250.419 862.39 248.146 856.182 243.205C851.498 239.477 848.076 234.46 846.294 228.834C845.328 225.784 842.512 223.47 839.333 223.831Z" stroke="white" stroke-width="2" mask="url(#path-44-outside-44_12_1697)"/>
</svg>
